<?xml version="1.0" encoding="UTF-8" standalone="no"?>
<!-- Created with Inkscape (http://www.inkscape.org/) -->

<svg
   xmlns:dc="http://purl.org/dc/elements/1.1/"
   xmlns:cc="http://creativecommons.org/ns#"
   xmlns:rdf="http://www.w3.org/1999/02/22-rdf-syntax-ns#"
   xmlns:svg="http://www.w3.org/2000/svg"
   xmlns="http://www.w3.org/2000/svg"
   xmlns:sodipodi="http://sodipodi.sourceforge.net/DTD/sodipodi-0.dtd"
   xmlns:inkscape="http://www.inkscape.org/namespaces/inkscape"
   width="305.98633mm"
   height="47.034184mm"
   viewBox="0 0 305.98632 47.034183"
   version="1.1"
   id="svg51834"
   sodipodi:docname="logo-instytut.svg"
   inkscape:export-filename="C:\Users\HP\Nextcloud\projekty\firmy\instytut-astronomii\logo-instytut-white.png"
   inkscape:export-xdpi="96"
   inkscape:export-ydpi="96"
   inkscape:version="0.92.2 (5c3e80d, 2017-08-06)">
  <defs
     id="defs51828">
    <inkscape:path-effect
       effect="powerstroke"
       id="path-effect2608"
       is_visible="true"
       offset_points="1,0.375"
       sort_points="true"
       interpolator_type="CubicBezierJohan"
       interpolator_beta="0.2"
       start_linecap_type="zerowidth"
       linejoin_type="extrp_arc"
       miter_limit="4"
       end_linecap_type="zerowidth" />
    <clipPath
       clipPathUnits="userSpaceOnUse"
       id="clipPath18">
      <path
         d="M 0,800 H 800 V 0 H 0 Z"
         id="path16"
         inkscape:connector-curvature="0" />
    </clipPath>
    <clipPath
       clipPathUnits="userSpaceOnUse"
       id="clipPath4034">
      <path
         d="M 0,800 H 800 V 0 H 0 Z"
         id="path4032"
         inkscape:connector-curvature="0" />
    </clipPath>
    <clipPath
       clipPathUnits="userSpaceOnUse"
       id="clipPath4048">
      <path
         d="M 0,800 H 800 V 0 H 0 Z"
         id="path4046"
         inkscape:connector-curvature="0" />
    </clipPath>
    <clipPath
       clipPathUnits="userSpaceOnUse"
       id="clipPath4222">
      <path
         d="M 0,800 H 800 V 0 H 0 Z"
         id="path4220"
         inkscape:connector-curvature="0" />
    </clipPath>
    <clipPath
       clipPathUnits="userSpaceOnUse"
       id="clipPath1491-2">
      <path
         style="opacity:1;fill:#000000;fill-opacity:1;fill-rule:nonzero;stroke:none;stroke-width:2.01935816;stroke-miterlimit:4;stroke-dasharray:none;stroke-opacity:1"
         d="m 354.47087,76.908186 v 5.404909 H 349.066 v 8.474411 h 5.40487 v 5.404899 h 8.474 v -5.404899 h 5.40491 v -8.474411 h -5.40491 v -5.404909 z"
         id="path1493-8"
         inkscape:connector-curvature="0" />
    </clipPath>
    <clipPath
       clipPathUnits="userSpaceOnUse"
       id="clipPath1491-2-6">
      <path
         sodipodi:nodetypes="cccccccccccccccc"
         style="opacity:1;fill:#000000;fill-opacity:1;fill-rule:nonzero;stroke:none;stroke-width:2.01935816;stroke-miterlimit:4;stroke-dasharray:none;stroke-opacity:1"
         d="m 354.29977,78.981884 v 5.404909 h -5.40487 v 8.474411 h 5.40487 v 5.404899 h 8.474 v -5.404899 h 5.40491 l 2e-5,-1.033531 v -0.06329 l -2e-5,-7.377586 h -5.40491 v -5.404909 h -3.13014 z"
         id="path1493-8-3"
         inkscape:connector-curvature="0" />
    </clipPath>
  </defs>
  <sodipodi:namedview
     id="base"
     pagecolor="#ffffff"
     bordercolor="#666666"
     borderopacity="1.0"
     inkscape:pageopacity="0.0"
     inkscape:pageshadow="2"
     inkscape:zoom="0.25"
     inkscape:cx="751.4228"
     inkscape:cy="-413.84722"
     inkscape:document-units="mm"
     inkscape:current-layer="g2097"
     showgrid="false"
     inkscape:snap-bbox="true"
     inkscape:bbox-paths="true"
     inkscape:bbox-nodes="true"
     inkscape:snap-bbox-edge-midpoints="true"
     inkscape:snap-bbox-midpoints="true"
     inkscape:object-paths="true"
     inkscape:snap-intersection-paths="true"
     inkscape:snap-smooth-nodes="true"
     inkscape:snap-midpoints="true"
     inkscape:snap-object-midpoints="true"
     inkscape:snap-global="false"
     fit-margin-top="0"
     fit-margin-left="0"
     fit-margin-right="0"
     fit-margin-bottom="0"
     inkscape:showpageshadow="false"
     inkscape:window-width="1920"
     inkscape:window-height="1137"
     inkscape:window-x="1912"
     inkscape:window-y="-8"
     inkscape:window-maximized="1" />
  <metadata
     id="metadata51831">
    <rdf:RDF>
      <cc:Work
         rdf:about="">
        <dc:format>image/svg+xml</dc:format>
        <dc:type
           rdf:resource="http://purl.org/dc/dcmitype/StillImage" />
        <dc:title></dc:title>
      </cc:Work>
    </rdf:RDF>
  </metadata>
  <g
     inkscape:label="Layer 1"
     inkscape:groupmode="layer"
     id="layer1"
     transform="translate(698.41955,206.22882)">
    <g
       transform="translate(-278.61228,157.28891)"
       id="layer1-2"
       inkscape:label="Layer 1">
      <g
         id="g10"
         inkscape:label="10777-NN3NZ3"
         transform="matrix(0.35277777,0,0,-0.35277777,1136.7518,-531.67443)">
        <g
           id="g2097"
           transform="translate(869.53127,269.53126)">
          <g
             transform="translate(0,-337.50001)"
             id="g52545" />
          <rect
             style="opacity:1;fill:#ffffff;fill-opacity:0;stroke:none;stroke-width:0.18425198;stroke-linecap:butt;stroke-miterlimit:4;stroke-dasharray:none;stroke-dashoffset:0;stroke-opacity:1"
             id="rect52563"
             width="1086"
             height="0"
             x="-6922.2075"
             y="1404.6703"
             transform="scale(1,-1)" />
          <g
             id="g52531"
             transform="matrix(0.96915965,0,0,0.96915965,-541.46394,464.94312)">
            <text
               transform="scale(1,-1)"
               id="text52481"
               y="1353.9951"
               x="-4770.5527"
               style="font-style:normal;font-variant:normal;font-weight:bold;font-stretch:normal;font-size:44.0019455px;line-height:1.25;font-family:'Sitka Display';-inkscape-font-specification:'Sitka Display, Bold';font-variant-ligatures:normal;font-variant-caps:normal;font-variant-numeric:normal;font-feature-settings:normal;text-align:start;letter-spacing:0px;word-spacing:0px;writing-mode:lr-tb;text-anchor:start;fill:#000000;fill-opacity:1;stroke:none;stroke-width:0.51565492"
               xml:space="preserve"><tspan
                 style="font-style:normal;font-variant:normal;font-weight:bold;font-stretch:normal;font-size:44.0019455px;font-family:'Sitka Display';-inkscape-font-specification:'Sitka Display, Bold';font-variant-ligatures:normal;font-variant-caps:normal;font-variant-numeric:normal;font-feature-settings:normal;text-align:start;writing-mode:lr-tb;text-anchor:start;fill:#000000;fill-opacity:1;stroke-width:0.51565492"
                 y="1353.9951"
                 x="-4770.5527"
                 id="tspan52479"
                 sodipodi:role="line">JANUSZ GIL INSTITUTE OF ASTRONOMY</tspan></text>
            <text
               xml:space="preserve"
               style="font-style:normal;font-variant:normal;font-weight:normal;font-stretch:normal;font-size:32.23300171px;line-height:1.25;font-family:'Sitka Display';-inkscape-font-specification:'Sitka Display, Normal';font-variant-ligatures:normal;font-variant-caps:normal;font-variant-numeric:normal;font-feature-settings:normal;text-align:start;letter-spacing:0px;word-spacing:0px;writing-mode:lr-tb;text-anchor:start;fill:#090909;fill-opacity:1;stroke:none;stroke-width:0.37773919"
               x="-4774.436"
               y="1386.7891"
               id="text52489"
               transform="scale(1,-1)"><tspan
                 sodipodi:role="line"
                 id="tspan52487"
                 x="-4774.436"
                 y="1386.7891"
                 style="font-style:normal;font-variant:normal;font-weight:normal;font-stretch:normal;font-size:32.23300171px;font-family:'Sitka Display';-inkscape-font-specification:'Sitka Display, Normal';font-variant-ligatures:normal;font-variant-caps:normal;font-variant-numeric:normal;font-feature-settings:normal;text-align:start;writing-mode:lr-tb;text-anchor:start;fill:#090909;fill-opacity:1;stroke-width:0.37773919">UNIVERSITY OF ZIELONA GÓRA</tspan></text>
            <path
               style="fill:#000000;fill-opacity:1;stroke-width:0.29549065"
               d="m -4824.9898,-1291.443 c -0.3754,-0.3869 -1.6567,-1.1241 -2.8469,-1.6384 -2.2817,-0.5772 -2.9489,-1.5918 -3.143,-2.0993 -0.04,-0.1313 -0.1027,-0.2237 -0.1142,-0.4028 -0.022,-0.7919 5.278,-3.2555 5.2211,-5.5051 l -0.024,-1.6119 c 0,-0.1418 -1.2909,-0.7131 -3.379,-1.4717 -4.4233,-1.5616 -10.5253,-3.8944 -12.0591,-4.6101 -1.2594,-0.5876 -1.5348,-0.8409 -1.3944,-1.2835 0.096,-0.3033 0.1933,-3.3803 0.2153,-6.8373 l 0.04,-6.2849 2.6363,-2.9826 c 1.4499,-1.6404 2.857,-3.0641 3.1269,-3.1638 0.27,-0.1 1.2341,-0.2732 2.1423,-0.385 1.4726,-0.1812 1.8069,-0.3618 3.0911,-1.6656 0.7922,-0.8042 3.4758,-3.1933 3.6712,-3.1933 l 0.01,-27.832 -0.8126,-0.2881 c -1.5774,-0.559 -1.8247,-0.727 -1.7164,-2.0967 v -22.4232 h 10.6544 c -0.1402,3.2175 -0.1199,15.7206 0.1466,22.1676 0.2232,0.7018 0.3907,0.9069 1.1052,0.9378 h 15.5507 v 1.4567 h -15.5502 v 1.074 h 15.5508 v 1.4919 h -5.6651 c 0.074,3.0802 0.047,12.5485 -0.06,12.7211 h -5.0205 v -5.3131 -7.408 h -4.8052 v 21.4808 c 3.0789,0.5953 14.2548,2.3551 13.5476,5.324 -0.1925,0.7669 -0.2251,0.7793 -0.7635,0.2921 -0.6088,-0.5288 -8.5786,-1.1159 -8.9548,-0.7682 -0.1728,0.1728 -0.2569,0.3547 -0.1864,0.404 1.1516,0.8066 3.1027,1.9323 5.7424,3.3127 l 7.8202,4.3943 c 0.5828,-0.046 1.288,-0.1208 2.1394,-0.221 2.1607,-0.2544 4.9258,-0.6715 6.1447,-0.9269 1.2189,-0.2555 2.5486,-0.5283 2.9549,-0.6066 1.1949,-0.2302 3.3815,0.2756 3.4835,0.8057 0.1378,0.7151 -1.5529,1.354 -4.2223,1.5957 -1.3001,0.1178 -2.9622,0.3942 -3.6936,0.6147 -0.7313,0.2205 -1.5956,0.4121 -1.9207,0.4259 -0.325,0.014 -1.1228,0.2788 -1.7729,0.5887 l -1.182,0.5633 3.1477,-0.1322 c 1.7312,-0.073 4.5236,-0.331 6.2053,-0.5737 1.6817,-0.2426 3.5205,-0.4799 4.0861,-0.5269 0.3016,-0.025 0.5325,-0.068 0.752,-0.1829 l 3.4841,-4.1029 6.0316,2.4978 -3.7398,5.817 -21.4179,4.6574 -26.3633,-1.47 -0.2176,11.7539 25.5092,1.4607 c -0.3696,0.7998 -1.2595,1.7537 -7.2528,1.4238 l -11.703,-0.5137 -0.1882,3.3399 c -0.084,1.6198 -0.01,1.9352 0.632,2.6265 4.5015,2.2749 11.9902,1.3762 16.8071,2.2256 2.5755,0.3011 2.0843,1.8502 0.5131,2.3943 -0.8017,0.2698 -2.4707,0.2839 -6.944,0.058 -8.5337,-0.4303 -10.1538,-0.4052 -10.371,0.161 -0.3964,1.0329 0.4932,1.2308 7.1414,1.5877 3.5754,0.192 6.8332,0.44 7.2395,0.5512 -2.3392,0.4564 -5.029,0.3145 -6.9869,2.184 -1.615,1.5772 -2.2937,3.9196 -3.8568,6.6818 -0.509,0.9377 -0.5091,0.9983 -0.01,1.3661 3.0585,2.068 11.9867,2.1714 13.473,1.7258 -1.7751,0.7556 -7.7462,1.6248 -11.2487,0.7591 -9.7179,-2.4309 -9.8608,-10.2586 -10.4287,-14.4015 z m 14.0122,-50.8641 c -0.7674,0.01 -1.5429,-0.3911 -2.0356,-1.1797 -0.424,-0.7154 -0.543,-1.6582 -0.543,-2.3155 h 5.0008 c 0.1127,2.3428 -1.1433,3.4829 -2.4222,3.4952 z"
               id="path2126-0"
               inkscape:connector-curvature="0"
               sodipodi:nodetypes="cccccsccccccsccccccccccccccccccccccccccccccccsccccccccccccccccccccccccccccccccccccc" />
            <path
               style="opacity:1;fill:#000000;fill-opacity:1;fill-rule:nonzero;stroke:none;stroke-width:0.12102446;stroke-miterlimit:4;stroke-dasharray:none;stroke-dashoffset:0;stroke-opacity:1"
               d="m -4822.219,-1249.6796 a 68.988272,68.988272 0 0 1 -68.9884,-68.9878 68.988272,68.988272 0 0 1 55.6071,-67.6622 68.970168,68.970168 0 0 0 -51.3675,66.5997 68.970168,68.970168 0 0 0 68.9699,68.9699 68.970168,68.970168 0 0 0 16.2007,-2.013 68.988272,68.988272 0 0 1 -20.4218,3.0934 z"
               id="path2656-0"
               inkscape:connector-curvature="0" />
          </g>
        </g>
      </g>
    </g>
  </g>
</svg>
